ffmpeg started on 2025-06-05 at 19:35:38
Report written to "D:\Convert\FFMetrics\reports\ssim_report-6.txt"
Log level: 32
Command line:
ffmpeg -hide_banner -nostdin -i "G:\\\xc0\xed\xe8\xec\xe5\\\xce\xed\xe3\xee\xe8\xed\xe3\xe8\\!_36_\xce\xf1\xe5\xed\xfc_2024\\DreamCast\\\xcd\xe0\xef\xe0\xe4\xe5\xed\xe8\xe5 \xee\xe4\xe8\xed\xee\xf7\xea\xe8 \xed\xe0 \xe8\xed\xee\xe9 \xec\xe8\xf0\\[DC] Hitoribocchi no Isekai Kouryaku - 03_Telegram_HEVC.mkv" -i "G:\\\xc0\xed\xe8\xec\xe5\\\xce\xed\xe3\xee\xe8\xed\xe3\xe8\\!_36_\xce\xf1\xe5\xed\xfc_2024\\DreamCast\\\xcd\xe0\xef\xe0\xe4\xe5\xed\xe8\xe5 \xee\xe4\xe8\xed\xee\xf7\xea\xe8 \xed\xe0 \xe8\xed\xee\xe9 \xec\xe8\xf0\\[DC] Hitoribocchi no Isekai Kouryaku - 03_Telegram.mp4" -lavfi "[0:v]settb=AVTB,setpts=PTS-STARTPTS,format=pix_fmts=yuv420p10,fps=24000/1001,scale=1920:1080:flags=bicubic[main];[1:v]settb=AVTB,setpts=PTS-STARTPTS,format=pix_fmts=yuv420p,fps=24000/1001,scale=1920:1080:flags=bicubic[ref];[main][ref]ssim=eof_action=endall:stats_file='D\\:/Convert/FFMetrics/logs/ssim_logfile-6.txt'" -f null -
Input #0, matroska,webm, from 'G:\Аниме\Онгоинги\!_36_Осень_2024\DreamCast\Нападение одиночки на иной мир\[DC] Hitoribocchi no Isekai Kouryaku - 03_Telegram_HEVC.mkv':
  Metadata:
    COMPATIBLE_BRANDS: isomiso2avc1mp41
    MAJOR_BRAND     : isom
    MINOR_VERSION   : 512
    ENCODER         : Lavf61.7.100
  Duration: 00:23:49.08, start: -0.021000, bitrate: 1313 kb/s
  Stream #0:0: Video: hevc (Main 10), yuv420p10le(tv, bt709, progressive), 1920x1080 [SAR 1:1 DAR 16:9], 23.98 fps, 23.98 tbr, 1k tbn (default)
      Metadata:
        HANDLER_NAME    : VideoHandler
        VENDOR_ID       : [0][0][0][0]
        ENCODER         : Lavc61.19.100 libx265
        BPS             : 1115940
        DURATION        : 00:23:48.969708333
        NUMBER_OF_FRAMES: 34261
        NUMBER_OF_BYTES : 199330556
        _STATISTICS_WRITING_APP: mkvpropedit v66.0.0 ('Josie') 64-bit
        _STATISTICS_WRITING_DATE_UTC: 2025-05-31 09:52:46
        _STATISTICS_TAGS: BPS DURATION NUMBER_OF_FRAMES NUMBER_OF_BYTES
  Stream #0:1: Audio: aac (LC), 48000 Hz, stereo, fltp (default)
      Metadata:
        HANDLER_NAME    : SoundHandler
        VENDOR_ID       : [0][0][0][0]
        ENCODER         : Lavc61.19.100 aac
        BPS             : 193520
        DURATION        : 00:23:49.077000000
        NUMBER_OF_FRAMES: 66989
        NUMBER_OF_BYTES : 34569498
        _STATISTICS_WRITING_APP: mkvpropedit v66.0.0 ('Josie') 64-bit
        _STATISTICS_WRITING_DATE_UTC: 2025-05-31 09:52:46
        _STATISTICS_TAGS: BPS DURATION NUMBER_OF_FRAMES NUMBER_OF_BYTES
Input #1, mov,mp4,m4a,3gp,3g2,mj2, from 'G:\Аниме\Онгоинги\!_36_Осень_2024\DreamCast\Нападение одиночки на иной мир\[DC] Hitoribocchi no Isekai Kouryaku - 03_Telegram.mp4':
  Metadata:
    major_brand     : isom
    minor_version   : 512
    compatible_brands: isomiso2avc1mp41
    encoder         : Lavf60.16.100
  Duration: 00:23:49.03, start: 0.000000, bitrate: 3610 kb/s
  Stream #1:0[0x1](und): Video: h264 (High) (avc1 / 0x31637661), yuv420p(tv, bt709, progressive), 1920x1080 [SAR 1:1 DAR 16:9], 3463 kb/s, 23.98 fps, 23.98 tbr, 24k tbn (default)
      Metadata:
        handler_name    : VideoHandler
        vendor_id       : [0][0][0][0]
        encoder         : Lavc60.31.102 h264_qsv
  Stream #1:1[0x2](und): Audio: aac (HE-AACv2) (mp4a / 0x6134706D), 48000 Hz, stereo, fltp, 144 kb/s (default)
      Metadata:
        handler_name    : SoundHandler
        vendor_id       : [0][0][0][0]
Stream mapping:
  Stream #0:0 (hevc) -> settb:default
  Stream #1:0 (h264) -> settb:default
  ssim:default -> Stream #0:0 (wrapped_avframe)
  Stream #0:1 -> #0:1 (aac (native) -> pcm_s16le (native))
Output #0, null, to 'pipe:':
  Metadata:
    COMPATIBLE_BRANDS: isomiso2avc1mp41
    MAJOR_BRAND     : isom
    MINOR_VERSION   : 512
    encoder         : Lavf61.7.100
  Stream #0:0: Video: wrapped_avframe, yuv420p10le(tv, bt709, progressive), 1920x1080 [SAR 1:1 DAR 16:9], q=2-31, 200 kb/s, 23.98 fps, 23.98 tbn
      Metadata:
        encoder         : Lavc61.19.100 wrapped_avframe
  Stream #0:1: Audio: pcm_s16le, 48000 Hz, stereo, s16, 1536 kb/s (default)
      Metadata:
        HANDLER_NAME    : SoundHandler
        VENDOR_ID       : [0][0][0][0]
        _STATISTICS_TAGS: BPS DURATION NUMBER_OF_FRAMES NUMBER_OF_BYTES
        BPS             : 193520
        DURATION        : 00:23:49.077000000
        NUMBER_OF_FRAMES: 66989
        NUMBER_OF_BYTES : 34569498
        _STATISTICS_WRITING_APP: mkvpropedit v66.0.0 ('Josie') 64-bit
        _STATISTICS_WRITING_DATE_UTC: 2025-05-31 09:52:46
        encoder         : Lavc61.19.100 pcm_s16le
frame=  169 fps=0.0 q=-0.0 size=N/A time=00:00:07.04 bitrate=N/A speed=13.7x    frame=  378 fps=363 q=-0.0 size=N/A time=00:00:15.76 bitrate=N/A speed=15.2x    frame=  589 fps=380 q=-0.0 size=N/A time=00:00:24.56 bitrate=N/A speed=15.9x    frame=  774 fps=376 q=-0.0 size=N/A time=00:00:32.28 bitrate=N/A speed=15.7x    frame=  985 fps=381 q=-0.0 size=N/A time=00:00:41.08 bitrate=N/A speed=15.9x    frame= 1230 fps=398 q=-0.0 size=N/A time=00:00:51.30 bitrate=N/A speed=16.6x    frame= 1478 fps=409 q=-0.0 size=N/A time=00:01:01.64 bitrate=N/A speed=17.1x    frame= 1741 fps=423 q=-0.0 size=N/A time=00:01:12.61 bitrate=N/A speed=17.6x    frame= 1913 fps=412 q=-0.0 size=N/A time=00:01:19.78 bitrate=N/A speed=17.2x    frame= 2096 fps=406 q=-0.0 size=N/A time=00:01:27.42 bitrate=N/A speed=16.9x    frame= 2273 fps=400 q=-0.0 size=N/A time=00:01:34.80 bitrate=N/A speed=16.7x    frame= 2429 fps=393 q=-0.0 size=N/A time=00:01:41.30 bitrate=N/A speed=16.4x    frame= 2612 fps=389 q=-0.0 size=N/A time=00:01:48.94 bitrate=N/A speed=16.2x    frame= 2794 fps=387 q=-0.0 size=N/A time=00:01:56.53 bitrate=N/A speed=16.1x    frame= 2918 fps=378 q=-0.0 size=N/A time=00:02:01.70 bitrate=N/A speed=15.7x    frame= 3066 fps=372 q=-0.0 size=N/A time=00:02:07.87 bitrate=N/A speed=15.5x    frame= 3215 fps=366 q=-0.0 size=N/A time=00:02:14.09 bitrate=N/A speed=15.3x    frame= 3417 fps=368 q=-0.0 size=N/A time=00:02:22.51 bitrate=N/A speed=15.3x    frame= 3619 fps=369 q=-0.0 size=N/A time=00:02:30.94 bitrate=N/A speed=15.4x    frame= 3841 fps=373 q=-0.0 size=N/A time=00:02:40.20 bitrate=N/A speed=15.5x    frame= 4096 fps=378 q=-0.0 size=N/A time=00:02:50.83 bitrate=N/A speed=15.8x    frame= 4334 fps=382 q=-0.0 size=N/A time=00:03:00.76 bitrate=N/A speed=15.9x    frame= 4579 fps=386 q=-0.0 size=N/A time=00:03:10.98 bitrate=N/A speed=16.1x    frame= 4784 fps=387 q=-0.0 size=N/A time=00:03:19.53 bitrate=N/A speed=16.1x    frame= 5046 fps=391 q=-0.0 size=N/A time=00:03:30.46 bitrate=N/A speed=16.3x    frame= 5300 fps=396 q=-0.0 size=N/A time=00:03:41.05 bitrate=N/A speed=16.5x    frame= 5550 fps=399 q=-0.0 size=N/A time=00:03:51.48 bitrate=N/A speed=16.6x    frame= 5819 fps=403 q=-0.0 size=N/A time=00:04:02.70 bitrate=N/A speed=16.8x    frame= 6055 fps=405 q=-0.0 size=N/A time=00:04:12.54 bitrate=N/A speed=16.9x    frame= 6307 fps=407 q=-0.0 size=N/A time=00:04:23.05 bitrate=N/A speed=  17x    frame= 6579 fps=411 q=-0.0 size=N/A time=00:04:34.39 bitrate=N/A speed=17.1x    frame= 6839 fps=414 q=-0.0 size=N/A time=00:04:45.24 bitrate=N/A speed=17.3x    frame= 7066 fps=415 q=-0.0 size=N/A time=00:04:54.71 bitrate=N/A speed=17.3x    frame= 7288 fps=415 q=-0.0 size=N/A time=00:05:03.97 bitrate=N/A speed=17.3x    frame= 7506 fps=416 q=-0.0 size=N/A time=00:05:13.06 bitrate=N/A speed=17.3x    frame= 7722 fps=416 q=-0.0 size=N/A time=00:05:22.07 bitrate=N/A speed=17.3x    frame= 7980 fps=418 q=-0.0 size=N/A time=00:05:32.83 bitrate=N/A speed=17.4x    frame= 8251 fps=421 q=-0.0 size=N/A time=00:05:44.13 bitrate=N/A speed=17.5x    frame= 8503 fps=423 q=-0.0 size=N/A time=00:05:54.64 bitrate=N/A speed=17.6x    frame= 8773 fps=425 q=-0.0 size=N/A time=00:06:05.90 bitrate=N/A speed=17.7x    frame= 9000 fps=425 q=-0.0 size=N/A time=00:06:15.37 bitrate=N/A speed=17.7x    frame= 9200 fps=424 q=-0.0 size=N/A time=00:06:23.71 bitrate=N/A speed=17.7x    frame= 9444 fps=426 q=-0.0 size=N/A time=00:06:33.89 bitrate=N/A speed=17.8x    frame= 9668 fps=426 q=-0.0 size=N/A time=00:06:43.23 bitrate=N/A speed=17.8x    frame= 9892 fps=426 q=-0.0 size=N/A time=00:06:52.57 bitrate=N/A speed=17.8x    frame=10136 fps=427 q=-0.0 size=N/A time=00:07:02.75 bitrate=N/A speed=17.8x    frame=10358 fps=427 q=-0.0 size=N/A time=00:07:12.01 bitrate=N/A speed=17.8x    frame=10566 fps=427 q=-0.0 size=N/A time=00:07:20.69 bitrate=N/A speed=17.8x    frame=10783 fps=426 q=-0.0 size=N/A time=00:07:29.74 bitrate=N/A speed=17.8x    frame=11029 fps=427 q=-0.0 size=N/A time=00:07:40.00 bitrate=N/A speed=17.8x    frame=11289 fps=429 q=-0.0 size=N/A time=00:07:50.84 bitrate=N/A speed=17.9x    frame=11485 fps=428 q=-0.0 size=N/A time=00:07:59.02 bitrate=N/A speed=17.9x    frame=11705 fps=428 q=-0.0 size=N/A time=00:08:08.19 bitrate=N/A speed=17.8x    frame=11946 fps=429 q=-0.0 size=N/A time=00:08:18.24 bitrate=N/A speed=17.9x    frame=12147 fps=428 q=-0.0 size=N/A time=00:08:26.63 bitrate=N/A speed=17.9x    frame=12377 fps=428 q=-0.0 size=N/A time=00:08:36.22 bitrate=N/A speed=17.9x    frame=12650 fps=430 q=-0.0 size=N/A time=00:08:47.61 bitrate=N/A speed=17.9x    frame=12874 fps=430 q=-0.0 size=N/A time=00:08:56.95 bitrate=N/A speed=17.9x    frame=13116 fps=431 q=-0.0 size=N/A time=00:09:07.04 bitrate=N/A speed=  18x    frame=13285 fps=429 q=-0.0 size=N/A time=00:09:14.09 bitrate=N/A speed=17.9x    frame=13572 fps=431 q=-0.0 size=N/A time=00:09:26.06 bitrate=N/A speed=  18x    frame=13833 fps=432 q=-0.0 size=N/A time=00:09:36.95 bitrate=N/A speed=  18x    frame=14093 fps=434 q=-0.0 size=N/A time=00:09:47.79 bitrate=N/A speed=18.1x    frame=14364 fps=435 q=-0.0 size=N/A time=00:09:59.09 bitrate=N/A speed=18.1x    frame=14634 fps=437 q=-0.0 size=N/A time=00:10:10.35 bitrate=N/A speed=18.2x    frame=14906 fps=438 q=-0.0 size=N/A time=00:10:21.70 bitrate=N/A speed=18.3x    frame=15150 fps=438 q=-0.0 size=N/A time=00:10:31.88 bitrate=N/A speed=18.3x    frame=15379 fps=438 q=-0.0 size=N/A time=00:10:41.43 bitrate=N/A speed=18.3x    frame=15610 fps=439 q=-0.0 size=N/A time=00:10:51.06 bitrate=N/A speed=18.3x    frame=15834 fps=438 q=-0.0 size=N/A time=00:11:00.40 bitrate=N/A speed=18.3x    frame=16089 fps=439 q=-0.0 size=N/A time=00:11:11.04 bitrate=N/A speed=18.3x    frame=16332 fps=440 q=-0.0 size=N/A time=00:11:21.18 bitrate=N/A speed=18.3x    frame=16574 fps=440 q=-0.0 size=N/A time=00:11:31.27 bitrate=N/A speed=18.4x    frame=16824 fps=441 q=-0.0 size=N/A time=00:11:41.70 bitrate=N/A speed=18.4x    frame=17024 fps=440 q=-0.0 size=N/A time=00:11:50.04 bitrate=N/A speed=18.3x    frame=17257 fps=440 q=-0.0 size=N/A time=00:11:59.76 bitrate=N/A speed=18.4x    frame=17474 fps=440 q=-0.0 size=N/A time=00:12:08.81 bitrate=N/A speed=18.4x    frame=17697 fps=440 q=-0.0 size=N/A time=00:12:18.11 bitrate=N/A speed=18.3x    frame=17899 fps=439 q=-0.0 size=N/A time=00:12:26.53 bitrate=N/A speed=18.3x    frame=18126 fps=439 q=-0.0 size=N/A time=00:12:36.00 bitrate=N/A speed=18.3x    frame=18298 fps=438 q=-0.0 size=N/A time=00:12:43.17 bitrate=N/A speed=18.3x    frame=18542 fps=438 q=-0.0 size=N/A time=00:12:53.35 bitrate=N/A speed=18.3x    frame=18770 fps=438 q=-0.0 size=N/A time=00:13:02.86 bitrate=N/A speed=18.3x    frame=18948 fps=437 q=-0.0 size=N/A time=00:13:10.28 bitrate=N/A speed=18.2x    frame=19181 fps=437 q=-0.0 size=N/A time=00:13:20.00 bitrate=N/A speed=18.2x    frame=19441 fps=438 q=-0.0 size=N/A time=00:13:30.85 bitrate=N/A speed=18.3x    frame=19704 fps=439 q=-0.0 size=N/A time=00:13:41.82 bitrate=N/A speed=18.3x    frame=19950 fps=439 q=-0.0 size=N/A time=00:13:52.08 bitrate=N/A speed=18.3x    frame=20171 fps=439 q=-0.0 size=N/A time=00:14:01.29 bitrate=N/A speed=18.3x    frame=20340 fps=438 q=-0.0 size=N/A time=00:14:08.34 bitrate=N/A speed=18.3x    frame=20600 fps=439 q=-0.0 size=N/A time=00:14:19.19 bitrate=N/A speed=18.3x    frame=20847 fps=439 q=-0.0 size=N/A time=00:14:29.49 bitrate=N/A speed=18.3x    frame=21089 fps=440 q=-0.0 size=N/A time=00:14:39.58 bitrate=N/A speed=18.3x    frame=21306 fps=439 q=-0.0 size=N/A time=00:14:48.63 bitrate=N/A speed=18.3x    frame=21466 fps=438 q=-0.0 size=N/A time=00:14:55.31 bitrate=N/A speed=18.3x    frame=21708 fps=438 q=-0.0 size=N/A time=00:15:05.40 bitrate=N/A speed=18.3x    frame=21955 fps=439 q=-0.0 size=N/A time=00:15:15.70 bitrate=N/A speed=18.3x    frame=22214 fps=439 q=-0.0 size=N/A time=00:15:26.50 bitrate=N/A speed=18.3x    frame=22444 fps=439 q=-0.0 size=N/A time=00:15:36.10 bitrate=N/A speed=18.3x    frame=22688 fps=440 q=-0.0 size=N/A time=00:15:46.27 bitrate=N/A speed=18.3x    frame=22916 fps=440 q=-0.0 size=N/A time=00:15:55.78 bitrate=N/A speed=18.3x    frame=23159 fps=440 q=-0.0 size=N/A time=00:16:05.92 bitrate=N/A speed=18.4x    frame=23389 fps=440 q=-0.0 size=N/A time=00:16:15.51 bitrate=N/A speed=18.4x    frame=23644 fps=441 q=-0.0 size=N/A time=00:16:26.15 bitrate=N/A speed=18.4x    frame=23912 fps=441 q=-0.0 size=N/A time=00:16:37.32 bitrate=N/A speed=18.4x    frame=24178 fps=442 q=-0.0 size=N/A time=00:16:48.42 bitrate=N/A speed=18.4x    frame=24429 fps=443 q=-0.0 size=N/A time=00:16:58.89 bitrate=N/A speed=18.5x    frame=24701 fps=443 q=-0.0 size=N/A time=00:17:10.23 bitrate=N/A speed=18.5x    frame=24972 fps=444 q=-0.0 size=N/A time=00:17:21.54 bitrate=N/A speed=18.5x    frame=25198 fps=444 q=-0.0 size=N/A time=00:17:30.96 bitrate=N/A speed=18.5x    frame=25465 fps=445 q=-0.0 size=N/A time=00:17:42.10 bitrate=N/A speed=18.5x    frame=25689 fps=444 q=-0.0 size=N/A time=00:17:51.44 bitrate=N/A speed=18.5x    frame=25904 fps=444 q=-0.0 size=N/A time=00:18:00.41 bitrate=N/A speed=18.5x    frame=26154 fps=444 q=-0.0 size=N/A time=00:18:10.83 bitrate=N/A speed=18.5x    frame=26374 fps=444 q=-0.0 size=N/A time=00:18:20.01 bitrate=N/A speed=18.5x    frame=26610 fps=444 q=-0.0 size=N/A time=00:18:29.85 bitrate=N/A speed=18.5x    frame=26842 fps=445 q=-0.0 size=N/A time=00:18:39.53 bitrate=N/A speed=18.5x    frame=27022 fps=444 q=-0.0 size=N/A time=00:18:47.04 bitrate=N/A speed=18.5x    frame=27184 fps=443 q=-0.0 size=N/A time=00:18:53.79 bitrate=N/A speed=18.5x    frame=27347 fps=442 q=-0.0 size=N/A time=00:19:00.59 bitrate=N/A speed=18.4x    frame=27526 fps=441 q=-0.0 size=N/A time=00:19:08.06 bitrate=N/A speed=18.4x    frame=27727 fps=440 q=-0.0 size=N/A time=00:19:16.44 bitrate=N/A speed=18.4x    frame=27954 fps=440 q=-0.0 size=N/A time=00:19:25.91 bitrate=N/A speed=18.4x    frame=28209 fps=441 q=-0.0 size=N/A time=00:19:36.55 bitrate=N/A speed=18.4x    frame=28442 fps=441 q=-0.0 size=N/A time=00:19:46.26 bitrate=N/A speed=18.4x    frame=28669 fps=441 q=-0.0 size=N/A time=00:19:55.73 bitrate=N/A speed=18.4x    frame=28927 fps=441 q=-0.0 size=N/A time=00:20:06.49 bitrate=N/A speed=18.4x    frame=29123 fps=441 q=-0.0 size=N/A time=00:20:14.67 bitrate=N/A speed=18.4x    frame=29377 fps=441 q=-0.0 size=N/A time=00:20:25.26 bitrate=N/A speed=18.4x    frame=29624 fps=441 q=-0.0 size=N/A time=00:20:35.56 bitrate=N/A speed=18.4x    frame=29822 fps=441 q=-0.0 size=N/A time=00:20:43.82 bitrate=N/A speed=18.4x    frame=30015 fps=440 q=-0.0 size=N/A time=00:20:51.87 bitrate=N/A speed=18.4x    frame=30250 fps=441 q=-0.0 size=N/A time=00:21:01.67 bitrate=N/A speed=18.4x    frame=30460 fps=440 q=-0.0 size=N/A time=00:21:10.43 bitrate=N/A speed=18.4x    frame=30654 fps=440 q=-0.0 size=N/A time=00:21:18.52 bitrate=N/A speed=18.3x    frame=30863 fps=440 q=-0.0 size=N/A time=00:21:27.24 bitrate=N/A speed=18.3x    frame=31071 fps=439 q=-0.0 size=N/A time=00:21:35.91 bitrate=N/A speed=18.3x    frame=31271 fps=439 q=-0.0 size=N/A time=00:21:44.26 bitrate=N/A speed=18.3x    frame=31479 fps=439 q=-0.0 size=N/A time=00:21:52.93 bitrate=N/A speed=18.3x    frame=31692 fps=439 q=-0.0 size=N/A time=00:22:01.82 bitrate=N/A speed=18.3x    frame=31899 fps=438 q=-0.0 size=N/A time=00:22:10.45 bitrate=N/A speed=18.3x    frame=32122 fps=438 q=-0.0 size=N/A time=00:22:19.75 bitrate=N/A speed=18.3x    frame=32322 fps=438 q=-0.0 size=N/A time=00:22:28.09 bitrate=N/A speed=18.3x    frame=32545 fps=438 q=-0.0 size=N/A time=00:22:37.39 bitrate=N/A speed=18.3x    frame=32735 fps=437 q=-0.0 size=N/A time=00:22:45.32 bitrate=N/A speed=18.2x    frame=32932 fps=437 q=-0.0 size=N/A time=00:22:53.53 bitrate=N/A speed=18.2x    frame=33114 fps=436 q=-0.0 size=N/A time=00:23:01.12 bitrate=N/A speed=18.2x    frame=33275 fps=436 q=-0.0 size=N/A time=00:23:07.84 bitrate=N/A speed=18.2x    frame=33465 fps=435 q=-0.0 size=N/A time=00:23:15.76 bitrate=N/A speed=18.1x    frame=33714 fps=435 q=-0.0 size=N/A time=00:23:26.15 bitrate=N/A speed=18.2x    frame=33954 fps=436 q=-0.0 size=N/A time=00:23:36.16 bitrate=N/A speed=18.2x    frame=34188 fps=436 q=-0.0 size=N/A time=00:23:45.92 bitrate=N/A speed=18.2x    [Parsed_ssim_10 @ 000001feeb199300] SSIM Y:0.993545 (21.901292) U:0.992923 (21.501668) V:0.992921 (21.500224) All:0.993338 (21.763701)
[out#0/null @ 000001feeb104bc0] video:14722KiB audio:267956KiB subtitle:0KiB other streams:0KiB global headers:0KiB muxing overhead: unknown
frame=34261 fps=436 q=-0.0 Lsize=N/A time=00:23:48.96 bitrate=N/A speed=18.2x    
